Coordinates
version=1
nRows=29
nColumns=22
inDegrees=yes

Units are S.I. units (second, meters, Newtons, ...)
If the header above contains a line with 'inDegrees', this indicates whether rotational values are in degrees (yes) or radians (no).

endheader
time	pelvis_tilt	pelvis_list	pelvis_rotation	pelvis_tx	pelvis_ty	pelvis_tz	hip_flexion_r	hip_adduction_r	hip_rotation_r	knee_angle_r	ankle_angle_r	subtalar_angle_r	hip_flexion_l	hip_adduction_l	hip_rotation_l	knee_angle_l	ankle_angle_l	subtalar_angle_l	lumbar_extension	lumbar_bending	lumbar_rotation
      0.01000000	     -3.28308661	     -6.43683187	     10.48104695	      0.09032739	      0.97683448	      1.08094018	      5.79557997	      7.18241614	    -11.83133284	    -15.35534159	     11.02134802	      0.60735684	      5.02361599	     -7.16249421	     13.80371928	     -8.67909940	      9.74379748	     -1.06110392	      3.01974000	      6.49031798	     -6.75656839
      0.02000000	     -3.27276096	     -6.44544382	     10.45206048	      0.09038804	      0.97683324	      1.08101353	      5.81366099	      7.19141060	    -11.81004616	    -15.41076613	     11.02310621	      0.63862291	      5.01605521	     -7.17887404	     13.80391544	     -8.69982920	      9.75128983	     -1.06453516	      2.99237349	      6.50753675	     -6.75788386
      0.03000000	     -3.28711433	     -6.44367338	     10.37630657	      0.09046517	      0.97679201	      1.08113977	      5.87175373	      7.18447931	    -11.73464910	    -15.50107869	     11.07498752	      0.79001698	      5.03643333	     -7.18097151	     13.72886147	     -8.74546768	      9.79116308	     -1.08017152	      2.98265105	      6.51420974	     -6.70574220
      0.04000000	     -3.27952339	     -6.44271244	     10.32751544	      0.09054124	      0.97676003	      1.08125808	      5.93651500	      7.17637822	    -11.71562579	    -15.63961471	     11.12489827	      0.81720704	      5.03261595	     -7.18907796	     13.72155243	     -8.78059380	      9.82476996	     -1.08411826	      2.94529412	      6.52267797	     -6.67746026
      0.05000000	     -3.28898501	     -6.42245159	     10.25385474	      0.09060863	      0.97669525	      1.08139669	      6.04878072	      7.14130624	    -11.65919661	    -15.83854081	     11.19782166	      0.84952177	      5.05121637	     -7.17220812	     13.67331775	     -8.83868802	      9.86507594	     -1.09047440	      2.91680433	      6.51317429	     -6.63419130
      0.06000000	     -3.33433988	     -6.38090500	     10.16704260	      0.09064638	      0.97658499	      1.08155887	      6.22608980	      7.07642152	    -11.56281035	    -16.09033354	     11.28007410	      0.90283481	      5.11302630	     -7.12425262	     13.60382628	     -8.91323469	      9.88902056	     -1.09312037	      2.91578541	      6.47445149	     -6.60018987
      0.07000000	     -3.36712059	     -6.34099150	     10.08471170	      0.09068951	      0.97646764	      1.08172241	      6.41768034	      7.00970028	    -11.49176998	    -16.38868351	     11.37703236	      0.93950223	      5.16221675	     -7.08074573	     13.54733027	     -8.98829221	      9.93035213	     -1.09557003	      2.89700830	      6.44251072	     -6.56178848
      0.08000000	     -3.40412742	     -6.29232298	      9.99968191	      0.09072620	      0.97633379	      1.08191055	      6.63451968	      6.93250287	    -11.41401382	    -16.72416778	     11.47683026	      0.96661695	      5.21397671	     -7.02846750	     13.48689022	     -9.06156310	      9.96962116	     -1.09535065	      2.87468984	      6.39944419	     -6.52171749
      0.09000000	     -3.44812435	     -6.23459578	      9.91249425	      0.09076693	      0.97618135	      1.08210978	      6.87086309	      6.84341795	    -11.33218567	    -17.08352834	     11.57897122	      0.98560496	      5.26994941	     -6.96634874	     13.42103197	     -9.13266619	     10.00782663	     -1.09122935	      2.85405098	      6.34738285	     -6.48412125
      0.10000000	     -3.49661439	     -6.17220184	      9.82695437	      0.09081010	      0.97601874	      1.08233237	      7.11707725	      6.75110640	    -11.24852243	    -17.45085071	     11.67558772	      0.99678849	      5.32577877	     -6.90052322	     13.35510154	     -9.19589577	     10.04242505	     -1.08241450	      2.83227679	      6.28942883	     -6.45144370
      0.11000000	     -3.54512929	     -6.10810237	      9.74426992	      0.09087110	      0.97585271	      1.08257088	      7.35639542	      6.65954005	    -11.16614077	    -17.80726563	     11.76473123	      0.99937107	      5.37344479	     -6.83617239	     13.28903140	     -9.24496117	     10.07394591	     -1.07115247	      2.80693449	      6.22985595	     -6.42595357
      0.12000000	     -3.56147941	     -6.06542022	      9.67675676	      0.09098845	      0.97571984	      1.08282577	      7.54597028	      6.59862343	    -11.12370112	    -18.13137958	     11.83469562	      0.99112312	      5.36817189	     -6.80708484	     13.24442594	     -9.25360576	     10.11974888	     -1.06683739	      2.75115775	      6.19813909	     -6.39752572
      0.13000000	     -3.63047015	     -5.98301138	      9.58811458	      0.09108085	      0.97554292	      1.08310985	      7.76763534	      6.49742858	    -11.01009296	    -18.42668015	     11.91889666	      0.98078342	      5.41906773	     -6.72512562	     13.15612992	     -9.28110745	     10.12210476	     -1.05375924	      2.73912121	      6.11553944	     -6.39179533
      0.14000000	     -3.67517109	     -5.93066474	      9.51760495	      0.09122256	      0.97539062	      1.08340892	      7.93850339	      6.43580703	    -10.93931762	    -18.67153730	     11.98545571	      0.96711901	      5.43103194	     -6.68547173	     13.09326785	     -9.27313360	     10.14186000	     -1.04451542	      2.70651028	      6.06867498	     -6.38915005
      0.15000000	     -3.70362040	     -5.89847672	      9.45923032	      0.09142666	      0.97526537	      1.08373524	      8.05975202	      6.40488743	    -10.89652048	    -18.85708635	     12.04066483	      0.95178960	      5.40840854	     -6.67716098	     13.04734582	     -9.23039479	     10.16469658	     -1.04105135	      2.66372706	      6.04252629	     -6.39326919
      0.16000000	     -3.74848452	     -5.85308184	      9.39264558	      0.09164254	      0.97513690	      1.08407733	      8.16594351	      6.36554326	    -10.82484312	    -18.99526615	     12.10357737	      0.93025965	      5.39716121	     -6.65279151	     12.98165380	     -9.18475404	     10.16795841	     -1.03739034	      2.63340308	      6.00186590	     -6.40658915
      0.17000000	     -3.77641410	     -5.83943503	      9.36303081	      0.09188352	      0.97504209	      1.08440348	      8.21541695	      6.36752525	    -10.78540175	    -19.05449697	     12.11491080	      0.92367270	      5.38198881	     -6.66311699	     12.95358399	     -9.14428407	     10.17529408	     -1.03703409	      2.59215038	      5.99697812	     -6.47136480
      0.18000000	     -3.84191165	     -5.80469855	      9.29516928	      0.09216818	      0.97491194	      1.08478587	      8.28612379	      6.34942910	    -10.71171706	    -19.10083199	     12.19315985	      0.89011950	      5.37547602	     -6.65203287	     12.88567942	     -9.07131246	     10.16587229	     -1.03348691	      2.58735443	      5.96231581	     -6.46599858
      0.19000000	     -3.88729072	     -5.79254091	      9.26466057	      0.09248038	      0.97481532	      1.08514266	      8.31029118	      6.35702577	    -10.68955075	    -19.09548566	     12.20591760	      0.88266026	      5.36927128	     -6.66389692	     12.85138618	     -9.02196100	     10.17477217	     -1.03406813	      2.56672622	      5.95499245	     -6.53143441
      0.20000000	     -3.95553892	     -5.78676582	      9.23059559	      0.09282828	      0.97470486	      1.08552954	      8.33444833	      6.37906972	    -10.62563717	    -19.05280976	     12.25084404	      0.85416325	      5.37753044	     -6.68250362	     12.81228267	     -8.95414309	     10.16168589	     -1.02976775	      2.57096171	      5.94783639	     -6.57073804
      0.21000000	     -4.01778923	     -5.77864292	      9.20565375	      0.09322429	      0.97460743	      1.08589227	      8.34220228	      6.39391565	    -10.60840121	    -18.99856176	     12.27068322	      0.84317655	      5.38187815	     -6.69667199	     12.77428423	     -8.89490256	     10.17073444	     -1.02964918	      2.56829005	      5.94428355	     -6.63244057
      0.22000000	     -4.09307039	     -5.79253009	      9.17804630	      0.09365351	      0.97450255	      1.08631391	      8.34588600	      6.44331177	    -10.54693757	    -18.91036014	     12.29295079	      0.81172255	      5.40699010	     -6.73576601	     12.75320220	     -8.84447440	     10.15905408	     -1.02140524	      2.57977305	      5.95588501	     -6.68955024
      0.23000000	     -4.16349662	     -5.78919069	      9.15784101	      0.09413302	      0.97440660	      1.08670936	      8.34218695	      6.46666206	    -10.53956863	    -18.82916929	     12.30909162	      0.80062508	      5.42088695	     -6.75531977	     12.71579621	     -8.79079866	     10.17177642	     -1.02022929	      2.58076938	      5.95310657	     -6.75139500
      0.24000000	     -4.24257280	     -5.82290571	      9.13768252	      0.09460640	      0.97430160	      1.08716600	      8.33813761	      6.54130197	    -10.48487843	    -18.71711128	     12.30839111	      0.76619246	      5.46628685	     -6.81454454	     12.70305907	     -8.76394864	     10.17180697	     -1.00593524	      2.58725202	      5.98634388	     -6.81960194
      0.25000000	     -4.32508323	     -5.84961144	      9.11481573	      0.09510163	      0.97419027	      1.08763630	      8.33985921	      6.60423406	    -10.46144672	    -18.61335463	     12.30059654	      0.72752496	      5.51512043	     -6.86613453	     12.67460784	     -8.74096077	     10.19211130	     -0.98862213	      2.58855989	      6.01217668	     -6.88152232
      0.26000000	     -4.40486073	     -5.84911520	      9.08577437	      0.09561370	      0.97408718	      1.08811433	      8.33872378	      6.63427319	    -10.45814422	    -18.52150031	     12.31443169	      0.71572287	      5.54728129	     -6.89074449	     12.63950883	     -8.70631261	     10.20481644	     -0.98368051	      2.57189760	      6.01086758	     -6.93281820
      0.27000000	     -4.50288884	     -5.89470581	      9.03969312	      0.09606802	      0.97395076	      1.08868600	      8.36302349	      6.72462175	    -10.39223196	    -18.41757044	     12.29751876	      0.67981006	      5.63522600	     -6.96211377	     12.60808080	     -8.72129095	     10.22314368	     -0.95745629	      2.56371209	      6.05547803	     -6.97702928
      0.28000000	     -4.60884800	     -5.91988263	      8.98324902	      0.09652555	      0.97380216	      1.08928410	      8.40018864	      6.78894273	    -10.34370738	    -18.32861569	     12.29332203	      0.64306504	      5.72411072	     -7.01253206	     12.55487915	     -8.73260101	     10.24999288	     -0.92833852	      2.54864687	      6.07669904	     -7.00857718
      0.29000000	     -4.71943291	     -5.94117497	      8.91254509	      0.09696516	      0.97364299	      1.08993127	      8.44838757	      6.85082146	    -10.28170143	    -18.24990604	     12.29143705	      0.60926046	      5.82171913	     -7.06007850	     12.49314151	     -8.75439388	     10.27776076	     -0.89787029	      2.52241030	      6.09179779	     -7.02248581
